<svg width="24" height="21" viewBox="0 0 24 21" fill="none" xmlns="http://www.w3.org/2000/svg">
<path d="M7.2 16.8C5.88 16.8 4.812 17.745 4.812 18.9C4.812 20.055 5.88 21 7.2 21C8.52 21 9.6 20.055 9.6 18.9C9.6 17.745 8.52 16.8 7.2 16.8ZM0 0V2.1H2.4L6.72 10.0695L5.1 12.642C4.908 12.936 4.8 13.2825 4.8 13.65C4.8 14.805 5.88 15.75 7.2 15.75H21.6V13.65H7.704C7.536 13.65 7.404 13.5345 7.404 13.3875L7.44 13.2615L8.52 11.55H17.46C18.36 11.55 19.152 11.1195 19.56 10.4685L23.856 3.654C23.952 3.507 24 3.3285 24 3.15C24 2.5725 23.46 2.1 22.8 2.1H5.052L3.924 0H0ZM19.2 16.8C17.88 16.8 16.812 17.745 16.812 18.9C16.812 20.055 17.88 21 19.2 21C20.52 21 21.6 20.055 21.6 18.9C21.6 17.745 20.52 16.8 19.2 16.8Z" fill="#F1F1FF"/>
</svg>
