<svg width="15" height="16" viewBox="0 0 15 16" fill="none" xmlns="http://www.w3.org/2000/svg">
<path d="M14.0666 3.5194L12.8219 4.23784L12.7424 2.9144L11.2173 3.00606L11.3426 5.09186L8.59717 6.67693V3.50718L10.4668 2.57256L9.78311 1.20596L8.59717 1.79912V0.361481H7.06939V1.79912L5.88346 1.20596L5.19977 2.57256L7.06939 3.50718V6.67693L4.32398 5.09186L4.44925 3.00606L2.92415 2.9144L2.84471 4.23784L1.59995 3.5194L0.83606 4.84245L2.08082 5.56127L0.973942 6.29193L1.81613 7.56686L3.56009 6.4153L6.30512 8.00037L3.56009 9.58544L1.81613 8.43388L0.973942 9.70881L2.08082 10.4395L0.83606 11.1583L1.59995 12.4813L2.84471 11.7629L2.92415 13.0863L4.44925 12.9947L4.32398 10.9089L7.06939 9.32343V12.4936L5.19977 13.4282L5.88346 14.7948L7.06939 14.2016V15.6393H8.59717V14.2016L9.78311 14.7948L10.4668 13.4282L8.59717 12.4936V9.32343L11.3426 10.9089L11.2173 12.9947L12.7424 13.0863L12.8219 11.7629L14.0666 12.4813L14.8305 11.1583L13.5857 10.4395L14.6926 9.70881L13.8504 8.43388L12.1065 9.58544L9.36144 8.00037L12.1065 6.4153L13.8504 7.56686L14.6926 6.29193L13.5857 5.56127L14.8305 4.84245L14.0666 3.5194Z" fill="white"/>
</svg>
